<?xml version="1.0" standalone="no"?>
<!DOCTYPE svg PUBLIC "-//W3C//DTD SVG 20010904//EN"
 "http://www.w3.org/TR/2001/REC-SVG-20010904/DTD/svg10.dtd">
<svg version="1.0" xmlns="http://www.w3.org/2000/svg"
 width="1501.000000pt" height="1501.000000pt" viewBox="0 0 1501.000000 1501.000000"
 preserveAspectRatio="xMidYMid meet">
<metadata>
Created by potrace 1.14, written by Peter Selinger 2001-2017
</metadata>
<g transform="translate(0.000000,1501.000000) scale(0.100000,-0.100000)"
fill="#000000" stroke="none">
<path d="M7013 14180 c3 -8 29 -67 57 -130 384 -853 379 -842 380 -977 0 -143
-48 -261 -149 -362 -85 -87 -168 -135 -366 -214 -89 -35 -171 -69 -183 -76
-31 -17 -28 -6 28 83 48 78 51 80 142 125 l93 46 152 239 c84 132 153 246 153
255 0 17 -14 5 -146 -121 -50 -49 -94 -88 -97 -88 -4 0 22 44 56 98 122 189
121 186 40 112 -280 -258 -592 -556 -666 -638 -182 -200 -329 -457 -412 -720
-26 -81 -50 -155 -54 -165 -5 -14 -18 2 -55 72 l-48 92 26 75 25 76 -63 162
c-79 199 -144 407 -190 609 l-6 27 185 0 185 0 0 105 0 105 -213 0 -214 0 -11
24 c-6 13 -27 37 -48 52 -35 27 -43 29 -155 31 l-117 3 -48 -33 c-42 -27 -57
-48 -106 -142 -64 -122 -168 -349 -168 -365 0 -6 75 -10 220 -10 l220 0 0 -99
0 -99 -91 -7 c-51 -4 -148 -6 -218 -5 -69 2 -147 3 -173 2 l-47 -2 -50 -152
c-54 -167 -98 -317 -131 -447 -19 -74 -28 -92 -72 -140 -114 -125 -199 -271
-232 -397 -42 -164 -1 -361 98 -472 l34 -37 5 -230 c7 -314 43 -525 125 -735
l39 -97 -29 -39 c-44 -59 -188 -272 -188 -278 0 -3 101 -6 225 -6 l225 0 0
-105 0 -105 -291 0 -290 0 -63 -132 c-151 -320 -241 -616 -261 -868 -4 -47
-20 -132 -36 -189 -16 -57 -27 -106 -25 -108 2 -2 217 -4 477 -3 427 0 482 2
568 20 169 34 281 44 491 44 239 0 342 -15 522 -74 235 -78 376 -161 540 -319
227 -217 394 -507 493 -855 32 -112 32 -121 -5 -136 -77 -32 -150 -161 -151
-266 -2 -99 73 -183 249 -282 62 -35 70 -42 42 -36 -146 28 -285 135 -436 336
-40 54 -135 191 -212 305 -180 268 -262 374 -391 504 -252 253 -506 380 -864
433 -358 54 -712 -28 -977 -224 -107 -80 -190 -159 -256 -245 -31 -42 -59 -73
-61 -71 -2 2 3 32 12 67 21 85 103 248 164 329 49 65 165 181 231 232 l35 27
-257 1 -256 0 -6 -37 c-28 -182 -46 -495 -46 -816 0 -134 4 -226 9 -223 5 3
33 49 63 101 l53 95 5 -102 5 -103 99 175 c117 207 170 282 263 371 176 170
381 273 623 315 111 19 213 15 374 -16 357 -69 620 -248 896 -610 31 -41 121
-169 200 -285 280 -412 404 -544 581 -624 118 -52 149 -56 474 -55 342 1 374
6 515 76 67 34 106 64 185 139 55 53 129 136 165 183 l65 86 212 0 213 0 0
105 0 105 -140 0 -141 0 52 78 c29 42 65 93 81 113 15 20 28 40 28 43 0 3 -60
6 -134 6 l-135 0 -155 -229 c-249 -367 -342 -469 -490 -541 -126 -60 -155 -59
-52 2 111 66 188 135 217 194 17 37 20 56 15 100 -13 108 -73 206 -150 244
l-44 21 29 111 c93 345 298 695 522 890 147 129 263 199 432 262 320 118 680
137 1095 54 442 -87 777 -323 941 -663 44 -90 87 -220 76 -231 -2 -2 -20 20
-40 48 -50 73 -207 226 -298 290 -95 68 -217 129 -334 166 -150 49 -213 57
-420 56 -157 0 -208 -4 -293 -22 -317 -69 -528 -181 -755 -401 -169 -164 -169
-155 4 -147 l143 8 78 74 c230 219 484 339 800 376 284 34 610 -86 852 -313
98 -91 161 -182 301 -432 70 -125 129 -226 131 -224 2 2 -3 59 -11 127 -8 68
-13 125 -12 126 2 2 34 -53 72 -121 39 -69 71 -121 73 -116 2 5 -6 92 -17 193
-11 101 -23 275 -26 388 -11 373 -43 632 -109 885 -19 72 -39 182 -45 245 -15
149 -66 366 -123 518 l-19 52 -455 0 -454 0 0 100 0 100 318 0 c176 0 360 3
410 6 l91 7 -50 98 -49 99 1450 0 1450 0 0 110 0 110 -1514 0 -1513 0 -53 79
c-28 44 -76 112 -105 152 l-54 71 16 37 c26 61 92 265 93 287 0 21 -5 22 -186
29 -103 4 -350 4 -550 0 l-364 -8 0 107 0 106 570 0 570 0 7 28 c11 37 10 557
0 655 l-9 77 -169 0 -169 0 0 105 0 105 155 0 156 0 -7 38 c-73 424 -203 901
-344 1270 l-28 72 364 0 364 0 0 105 0 105 -407 2 -407 3 -55 110 c-103 205
-141 233 -311 233 -115 0 -141 -8 -184 -59 -33 -39 -51 -81 -66 -156 -33 -167
-73 -312 -96 -349 -14 -21 -22 -30 -18 -19 11 29 16 313 7 361 l-8 41 -89 -96
c-117 -126 -190 -183 -311 -242 -171 -83 -371 -119 -550 -98 -174 20 -403 22
-484 5 -41 -9 -76 -15 -77 -13 -1 1 0 25 3 53 5 50 6 52 42 58 20 3 48 6 64 6
25 0 27 3 29 43 11 267 -69 567 -205 767 -36 52 -575 780 -588 795 -5 5 29
-76 77 -180 47 -105 88 -197 91 -205 3 -8 -65 80 -152 195 -87 116 -155 203
-152 195z m610 -1137 c47 -146 61 -236 61 -378 -1 -126 -20 -244 -55 -338 -11
-29 -17 -41 -14 -27 10 52 16 350 8 460 l-8 115 -23 -65 c-74 -204 -226 -389
-371 -451 -24 -11 -100 -33 -170 -49 -227 -54 -377 -113 -476 -185 -50 -36
-50 -36 11 22 88 83 199 146 404 228 207 84 309 143 400 235 127 127 180 247
188 428 2 61 6 112 8 112 2 0 19 -48 37 -107z m1552 -543 c-19 -58 -62 -98
-181 -165 -132 -76 -310 -124 -458 -125 -38 0 -137 7 -220 16 -103 11 -199 14
-301 11 -197 -7 -280 -31 -383 -108 l-53 -40 25 48 c89 177 318 243 684 197
308 -39 593 26 832 189 36 25 66 41 68 36 2 -5 -4 -31 -13 -59z m-2659 -203
c-42 -91 -82 -202 -107 -292 -17 -64 -18 -66 -13 -21 5 42 26 121 51 195 3 9
-19 -17 -50 -58 -74 -97 -77 -99 -32 -16 54 99 167 265 180 265 2 0 -11 -33
-29 -73z m-1477 -904 c64 -109 85 -182 85 -298 1 -93 -1 -105 -31 -165 -63
-128 -150 -197 -263 -207 -51 -5 -67 -2 -115 21 -123 61 -184 240 -140 411 19
71 84 197 131 251 l34 39 -25 -58 c-66 -154 -82 -305 -40 -387 25 -50 73 -98
111 -110 27 -9 41 -8 76 8 117 51 172 272 118 473 -24 91 -24 89 0 89 13 0 31
-21 59 -67z m1215 -2824 c165 -55 292 -142 384 -264 50 -67 106 -182 118 -243
l6 -29 -54 4 c-29 3 -89 13 -133 24 -247 59 -392 225 -439 502 -9 47 -4 47
118 6z m2630 -1 c-16 -95 -30 -141 -66 -217 -49 -102 -133 -191 -229 -239 -69
-35 -191 -67 -281 -75 l-56 -5 23 69 c64 186 188 329 365 420 57 29 198 78
227 79 20 0 22 -4 17 -32z"/>
<path d="M11140 12835 l0 -105 105 0 105 0 0 105 0 105 -105 0 -105 0 0 -105z"/>
<path d="M10890 10655 l0 -105 105 0 105 0 0 105 0 105 -105 0 -105 0 0 -105z"/>
<path d="M12380 8785 l0 -105 105 0 106 0 -3 103 -3 102 -102 3 -103 3 0 -106z"/>
<path d="M9150 6345 l0 -105 105 0 105 0 0 105 0 105 -105 0 -105 0 0 -105z"/>
<path d="M1502 4328 l3 -752 239 -148 239 -148 505 0 505 0 221 136 c122 76
229 144 238 153 14 13 528 1475 528 1502 0 5 -141 9 -329 9 l-329 0 -26 -77
c-21 -67 -358 -1118 -387 -1210 l-11 -33 -384 0 -384 0 0 660 0 660 -315 0
-315 0 2 -752z"/>
<path d="M4410 4180 l0 -900 325 0 325 0 0 900 0 900 -325 0 -325 0 0 -900z"/>
<path d="M5626 5068 c7 -11 591 -693 646 -755 l20 -21 -401 -501 c-221 -275
-401 -503 -401 -506 0 -3 169 -4 376 -3 l377 3 244 360 c134 198 247 361 251
362 4 2 120 -157 257 -353 138 -195 255 -360 261 -365 7 -5 169 -8 403 -7
l392 3 -436 512 c-239 281 -435 514 -435 518 0 3 147 175 326 383 l327 377
-368 3 c-217 1 -372 -2 -379 -7 -6 -5 -83 -109 -171 -230 -88 -121 -163 -219
-167 -218 -3 1 -95 104 -203 230 l-196 227 -365 0 c-290 0 -364 -3 -358 -12z"/>
<path d="M8738 4944 l-258 -136 0 -764 0 -764 913 0 912 0 175 212 c96 116
177 215 178 220 2 4 -343 8 -767 8 l-771 0 0 135 0 135 224 0 225 0 178 191
c98 105 180 195 181 200 2 5 -170 9 -402 9 l-406 0 0 130 0 130 589 0 590 0
168 198 c92 108 174 205 182 215 13 16 -31 17 -820 17 l-834 -1 -257 -135z"/>
<path d="M11323 4956 l-233 -121 0 -767 0 -768 315 0 315 0 0 685 0 685 575 0
575 0 0 -685 0 -685 320 0 320 0 0 763 0 762 -253 128 -252 128 -725 -2 -725
-1 -232 -122z"/>
<path d="M2332 2539 c-50 -15 -681 -439 -726 -489 -87 -97 -109 -190 -104
-450 3 -184 3 -185 35 -253 37 -78 121 -171 197 -219 28 -18 156 -101 285
-186 289 -189 300 -195 373 -195 80 0 143 34 183 98 30 48 30 50 30 194 0 131
-2 150 -22 187 -30 57 -57 78 -321 253 -128 85 -232 157 -232 161 0 4 118 85
261 181 284 188 334 233 369 327 35 91 26 149 -37 243 -28 41 -67 89 -87 107
-54 48 -128 63 -204 41z"/>
<path d="M3510 1645 l0 -905 992 0 993 0 237 136 238 136 0 607 0 607 -252
162 -253 162 -977 0 -978 0 0 -905z m1940 87 l0 -488 -86 -97 -86 -97 -609 0
-609 0 0 585 0 585 695 0 695 0 0 -488z"/>
<path d="M6665 2412 l-260 -137 -3 -767 -2 -768 909 0 910 0 45 53 c25 28 108
129 185 222 l140 170 -774 3 -775 2 0 135 0 135 228 0 228 0 179 193 179 192
-407 3 -407 2 0 130 0 130 589 0 588 0 104 122 c57 68 141 167 187 220 l83 98
-833 0 -833 -1 -260 -137z"/>
<path d="M9020 1797 l0 -754 237 -146 237 -147 515 0 516 1 229 143 229 144
261 754 261 753 -329 3 c-181 1 -331 1 -333 -1 -2 -2 -95 -292 -208 -643 -113
-351 -209 -649 -215 -662 l-10 -22 -377 2 -378 3 -3 663 -2 662 -315 0 -315 0
0 -753z"/>
<path d="M12530 2529 c-60 -27 -79 -47 -142 -142 -49 -75 -53 -85 -53 -142 0
-76 39 -160 104 -225 25 -25 160 -119 298 -210 139 -91 253 -167 253 -170 0
-3 -109 -77 -243 -164 -133 -88 -253 -169 -266 -180 -13 -12 -34 -43 -47 -71
-21 -45 -24 -64 -24 -188 0 -116 3 -144 19 -175 46 -89 140 -133 241 -111 49
10 97 41 607 376 97 64 152 123 196 212 l32 65 3 206 c5 264 -9 329 -91 433
-33 43 -678 477 -736 496 -50 16 -100 13 -151 -10z"/>
</g>
</svg>
